<svg width="58" height="58" viewBox="0 0 58 58" fill="none" xmlns="http://www.w3.org/2000/svg">
<path d="M4.8335 28.9997C4.8335 17.6074 4.8335 11.9113 8.37263 8.37214C11.9117 4.83301 17.6079 4.83301 29.0002 4.83301C40.3923 4.83301 46.0887 4.83301 49.6276 8.37214C53.1668 11.9113 53.1668 17.6074 53.1668 28.9997C53.1668 40.3918 53.1668 46.0882 49.6276 49.6271C46.0887 53.1663 40.3923 53.1663 29.0002 53.1663C17.6079 53.1663 11.9117 53.1663 8.37263 49.6271C4.8335 46.0882 4.8335 40.3918 4.8335 28.9997Z" stroke="#6A911F" stroke-width="3.625"/>
<path d="M16.9165 33.8337L22.4577 28.2925C23.4014 27.3488 24.9316 27.3488 25.8753 28.2925L29.7077 32.1248C30.6514 33.0685 32.1816 33.0685 33.1253 32.1248L41.0832 24.167M41.0832 24.167V30.2087M41.0832 24.167H35.0415" stroke="#6A911F" stroke-width="3.625" stroke-linecap="round" stroke-linejoin="round"/>
</svg>
